<mxfile host="www.draw.io" modified="2024-03-29T10:34:23.360Z" agent="Mozilla/5.0 (Windows NT 10.0; Win64; x64) AppleWebKit/537.36 (KHTML, like Gecko) Chrome/123.0.0.0 Safari/537.36" etag="_P4du0HfTdYfMAUqtX8j" version="24.2.1" type="device">
  <diagram name="Page-1" id="l3jPuGY9NFlAF9fRcwll">
    <mxGraphModel dx="2261" dy="746" grid="1" gridSize="10" guides="1" tooltips="1" connect="1" arrows="1" fold="1" page="1" pageScale="1" pageWidth="827" pageHeight="1169" math="0" shadow="0">
      <root>
        <mxCell id="0" />
        <mxCell id="1" parent="0" />
        <mxCell id="2seX9RcIWCuR_-wTLBIA-5" style="edgeStyle=orthogonalEdgeStyle;rounded=0;orthogonalLoop=1;jettySize=auto;html=1;exitX=0.5;exitY=1;exitDx=0;exitDy=0;entryX=0.5;entryY=0;entryDx=0;entryDy=0;" parent="1" source="2seX9RcIWCuR_-wTLBIA-1" target="2seX9RcIWCuR_-wTLBIA-2" edge="1">
          <mxGeometry relative="1" as="geometry" />
        </mxCell>
        <mxCell id="2seX9RcIWCuR_-wTLBIA-6" style="edgeStyle=orthogonalEdgeStyle;rounded=0;orthogonalLoop=1;jettySize=auto;html=1;exitX=0.5;exitY=1;exitDx=0;exitDy=0;" parent="1" source="2seX9RcIWCuR_-wTLBIA-1" target="2seX9RcIWCuR_-wTLBIA-3" edge="1">
          <mxGeometry relative="1" as="geometry" />
        </mxCell>
        <mxCell id="2seX9RcIWCuR_-wTLBIA-7" style="edgeStyle=orthogonalEdgeStyle;rounded=0;orthogonalLoop=1;jettySize=auto;html=1;exitX=0.5;exitY=1;exitDx=0;exitDy=0;entryX=0.5;entryY=0;entryDx=0;entryDy=0;" parent="1" source="2seX9RcIWCuR_-wTLBIA-1" target="2seX9RcIWCuR_-wTLBIA-4" edge="1">
          <mxGeometry relative="1" as="geometry" />
        </mxCell>
        <mxCell id="2seX9RcIWCuR_-wTLBIA-21" style="edgeStyle=orthogonalEdgeStyle;rounded=0;orthogonalLoop=1;jettySize=auto;html=1;exitX=0;exitY=0.5;exitDx=0;exitDy=0;entryX=0;entryY=0.5;entryDx=0;entryDy=0;" parent="1" source="2seX9RcIWCuR_-wTLBIA-1" target="2seX9RcIWCuR_-wTLBIA-22" edge="1">
          <mxGeometry relative="1" as="geometry">
            <mxPoint x="-710" y="540" as="targetPoint" />
            <Array as="points">
              <mxPoint x="-680" y="125" />
              <mxPoint x="-680" y="558" />
            </Array>
          </mxGeometry>
        </mxCell>
        <mxCell id="2seX9RcIWCuR_-wTLBIA-1" value="Input" style="rounded=0;whiteSpace=wrap;html=1;fontSize=16;fontStyle=1;fillColor=#f5f5f5;fontColor=#333333;strokeColor=#666666;" parent="1" vertex="1">
          <mxGeometry x="-570" y="110" width="70" height="30" as="geometry" />
        </mxCell>
        <mxCell id="2seX9RcIWCuR_-wTLBIA-16" style="edgeStyle=orthogonalEdgeStyle;rounded=0;orthogonalLoop=1;jettySize=auto;html=1;exitX=0.5;exitY=1;exitDx=0;exitDy=0;entryX=0.5;entryY=0;entryDx=0;entryDy=0;" parent="1" source="2seX9RcIWCuR_-wTLBIA-2" target="2seX9RcIWCuR_-wTLBIA-15" edge="1">
          <mxGeometry relative="1" as="geometry" />
        </mxCell>
        <mxCell id="2seX9RcIWCuR_-wTLBIA-2" value="1 * 1 Conv, 4" style="rounded=0;whiteSpace=wrap;html=1;fontSize=16;fontStyle=1;fillColor=#f8cecc;strokeColor=#b85450;" parent="1" vertex="1">
          <mxGeometry x="-670" y="200" width="85" height="40" as="geometry" />
        </mxCell>
        <mxCell id="2seX9RcIWCuR_-wTLBIA-10" value="" style="edgeStyle=orthogonalEdgeStyle;rounded=0;orthogonalLoop=1;jettySize=auto;html=1;" parent="1" source="2seX9RcIWCuR_-wTLBIA-3" target="2seX9RcIWCuR_-wTLBIA-9" edge="1">
          <mxGeometry relative="1" as="geometry" />
        </mxCell>
        <mxCell id="2seX9RcIWCuR_-wTLBIA-3" value="1 * 1 Conv,&amp;nbsp;&lt;div&gt;4&lt;/div&gt;" style="rounded=0;whiteSpace=wrap;html=1;fontSize=16;fontStyle=1;fillColor=#f8cecc;strokeColor=#b85450;" parent="1" vertex="1">
          <mxGeometry x="-580" y="200" width="90" height="40" as="geometry" />
        </mxCell>
        <mxCell id="2seX9RcIWCuR_-wTLBIA-12" value="" style="edgeStyle=orthogonalEdgeStyle;rounded=0;orthogonalLoop=1;jettySize=auto;html=1;" parent="1" source="2seX9RcIWCuR_-wTLBIA-4" target="2seX9RcIWCuR_-wTLBIA-11" edge="1">
          <mxGeometry relative="1" as="geometry" />
        </mxCell>
        <mxCell id="2seX9RcIWCuR_-wTLBIA-4" value="1 * 1 Conv,&lt;div&gt;4&lt;/div&gt;" style="rounded=0;whiteSpace=wrap;html=1;fontSize=16;fontStyle=1;fillColor=#f8cecc;strokeColor=#b85450;" parent="1" vertex="1">
          <mxGeometry x="-480" y="200" width="100" height="40" as="geometry" />
        </mxCell>
        <mxCell id="2seX9RcIWCuR_-wTLBIA-17" style="edgeStyle=orthogonalEdgeStyle;rounded=0;orthogonalLoop=1;jettySize=auto;html=1;exitX=0.5;exitY=1;exitDx=0;exitDy=0;entryX=0.5;entryY=0;entryDx=0;entryDy=0;" parent="1" source="2seX9RcIWCuR_-wTLBIA-9" target="2seX9RcIWCuR_-wTLBIA-15" edge="1">
          <mxGeometry relative="1" as="geometry" />
        </mxCell>
        <mxCell id="2seX9RcIWCuR_-wTLBIA-9" value="3 * 3 Conv, 4" style="rounded=0;whiteSpace=wrap;html=1;fontSize=16;fontStyle=1;fillColor=#f8cecc;strokeColor=#b85450;" parent="1" vertex="1">
          <mxGeometry x="-580" y="280" width="90" height="40" as="geometry" />
        </mxCell>
        <mxCell id="2seX9RcIWCuR_-wTLBIA-14" value="" style="edgeStyle=orthogonalEdgeStyle;rounded=0;orthogonalLoop=1;jettySize=auto;html=1;" parent="1" source="2seX9RcIWCuR_-wTLBIA-11" target="2seX9RcIWCuR_-wTLBIA-13" edge="1">
          <mxGeometry relative="1" as="geometry" />
        </mxCell>
        <mxCell id="2seX9RcIWCuR_-wTLBIA-11" value="3 * 3 Conv,&lt;div&gt;6&lt;/div&gt;" style="rounded=0;whiteSpace=wrap;html=1;fontSize=16;fontStyle=1;fillColor=#f8cecc;strokeColor=#b85450;" parent="1" vertex="1">
          <mxGeometry x="-480" y="280" width="100" height="40" as="geometry" />
        </mxCell>
        <mxCell id="2seX9RcIWCuR_-wTLBIA-18" style="edgeStyle=orthogonalEdgeStyle;rounded=0;orthogonalLoop=1;jettySize=auto;html=1;exitX=0.5;exitY=1;exitDx=0;exitDy=0;entryX=0.5;entryY=0;entryDx=0;entryDy=0;" parent="1" source="2seX9RcIWCuR_-wTLBIA-13" target="2seX9RcIWCuR_-wTLBIA-15" edge="1">
          <mxGeometry relative="1" as="geometry">
            <Array as="points">
              <mxPoint x="-400" y="400" />
              <mxPoint x="-535" y="400" />
            </Array>
          </mxGeometry>
        </mxCell>
        <mxCell id="2seX9RcIWCuR_-wTLBIA-13" value="3 * 3 Conv,&lt;div&gt;8&lt;/div&gt;" style="rounded=0;whiteSpace=wrap;html=1;fontSize=16;fontStyle=1;fillColor=#f8cecc;strokeColor=#b85450;" parent="1" vertex="1">
          <mxGeometry x="-480" y="350" width="100" height="40" as="geometry" />
        </mxCell>
        <mxCell id="2seX9RcIWCuR_-wTLBIA-20" value="" style="edgeStyle=orthogonalEdgeStyle;rounded=0;orthogonalLoop=1;jettySize=auto;html=1;" parent="1" source="2seX9RcIWCuR_-wTLBIA-15" target="2seX9RcIWCuR_-wTLBIA-19" edge="1">
          <mxGeometry relative="1" as="geometry" />
        </mxCell>
        <mxCell id="2seX9RcIWCuR_-wTLBIA-15" value="Concatenate" style="rounded=0;whiteSpace=wrap;html=1;fontSize=16;fontStyle=1;fillColor=#f5f5f5;fontColor=#333333;strokeColor=#666666;" parent="1" vertex="1">
          <mxGeometry x="-595" y="420" width="120" height="30" as="geometry" />
        </mxCell>
        <mxCell id="2seX9RcIWCuR_-wTLBIA-23" value="" style="edgeStyle=orthogonalEdgeStyle;rounded=0;orthogonalLoop=1;jettySize=auto;html=1;" parent="1" source="2seX9RcIWCuR_-wTLBIA-19" target="2seX9RcIWCuR_-wTLBIA-22" edge="1">
          <mxGeometry relative="1" as="geometry" />
        </mxCell>
        <mxCell id="2seX9RcIWCuR_-wTLBIA-19" value="1 * 1 Conv, 48" style="rounded=0;whiteSpace=wrap;html=1;fontSize=16;fontStyle=1;fillColor=#f8cecc;strokeColor=#b85450;" parent="1" vertex="1">
          <mxGeometry x="-580" y="480" width="90" height="40" as="geometry" />
        </mxCell>
        <mxCell id="ljpawM3_hoNJayAfPGAM-2" value="" style="edgeStyle=orthogonalEdgeStyle;rounded=0;orthogonalLoop=1;jettySize=auto;html=1;" edge="1" parent="1" source="2seX9RcIWCuR_-wTLBIA-22" target="ljpawM3_hoNJayAfPGAM-1">
          <mxGeometry relative="1" as="geometry" />
        </mxCell>
        <mxCell id="2seX9RcIWCuR_-wTLBIA-22" value="Add" style="rounded=0;whiteSpace=wrap;html=1;fontSize=16;fontStyle=1;fillColor=#f5f5f5;strokeColor=#666666;fontColor=#333333;" parent="1" vertex="1">
          <mxGeometry x="-575" y="545" width="80" height="25" as="geometry" />
        </mxCell>
        <mxCell id="ljpawM3_hoNJayAfPGAM-1" value="ReLU" style="rounded=0;whiteSpace=wrap;html=1;fontSize=16;fontStyle=1;fillColor=#dae8fc;strokeColor=#6c8ebf;" vertex="1" parent="1">
          <mxGeometry x="-575" y="600" width="80" height="25" as="geometry" />
        </mxCell>
      </root>
    </mxGraphModel>
  </diagram>
</mxfile>
